<?xml version="1.0" standalone="no"?><!DOCTYPE svg PUBLIC "-//W3C//DTD SVG 1.1//EN" "http://www.w3.org/Graphics/SVG/1.1/DTD/svg11.dtd"><svg class="icon" width="200px" height="200.00px" viewBox="0 0 1024 1024" version="1.1" xmlns="http://www.w3.org/2000/svg"><path d="M512.49 553.41L178.87 887a29.38 29.38 0 0 1-20.81 8.64c-16.23 0.03-29.41-13.1-29.44-29.33a29.352 29.352 0 0 1 8.64-20.87l333.63-333.63-333.63-333.63c-11.48-11.49-11.46-30.11 0.03-41.59s30.11-11.46 41.59 0.03l333.6 333.6 333.6-333.6c12.3-10.69 30.93-9.38 41.62 2.92 9.62 11.08 9.65 27.54 0.05 38.64L554.08 511.83 887.7 845.44c11.43 11.61 11.28 30.29-0.34 41.72a29.451 29.451 0 0 1-20.47 8.47c-7.54 0-15.07-2.9-20.81-8.64L512.49 553.41z" fill="#444444" /></svg>